<?xml version="1.0" encoding="utf-8"?>
<!-- Generator: Adobe Illustrator 24.1.1, SVG Export Plug-In . SVG Version: 6.00 Build 0)  -->
<svg version="1.1" id="Layer_1" xmlns="http://www.w3.org/2000/svg" xmlns:xlink="http://www.w3.org/1999/xlink" x="0px" y="0px"
	 viewBox="0 0 512 512" style="enable-background:new 0 0 512 512;" xml:space="preserve">
<g>
	<path d="M512,512h-17.1c-73.2,0-140.1-27-191.3-71.5l0.4,0.3l-18-15.6c-10,1-20,1.5-30,1.5c-67.8,0-131.6-21.8-179.8-61.4
		C27.1,324.9,0,270.9,0,213.3s27.1-111.6,76.2-152C124.4,21.8,188.2,0,256,0s131.6,21.8,179.8,61.4c49.2,40.4,76.2,94.3,76.2,152
		c0,32.2-8.4,62.3-23,88.6l0.5-0.9c-13.3,24-30,44.3-49.9,61.1l-0.3,0.2c16.1,40.3,39,74.8,67.7,103.5l5,5L512,512z M297,389.6
		l29.3,25.4c38.8,33.8,88.4,56.2,142.9,61.6l1.1,0.1c-28.4-31.7-51.1-69.1-66-110.3l-0.8-2.4l-4.7-13.3l9.8-7.5
		c44.6-34.2,69.2-80.4,69.2-129.9c0-98.8-99.5-179.2-221.9-179.2S34.1,114.6,34.1,213.3S133.7,392.5,256,392.5
		c11.8,0,23.4-0.8,34.9-2.2l-1.4,0.1L297,389.6z"/>
</g>
</svg>
