<?xml version="1.0" encoding="utf-8"?>
<!-- Generator: Adobe Illustrator 24.1.1, SVG Export Plug-In . SVG Version: 6.00 Build 0)  -->
<svg version="1.1" id="Layer_1" xmlns="http://www.w3.org/2000/svg" xmlns:xlink="http://www.w3.org/1999/xlink" x="0px" y="0px"
	 viewBox="0 0 512 512" style="enable-background:new 0 0 512 512;" xml:space="preserve">
	<defs>
<linearGradient id="gradient" x1="0%" y1="0%" x2="100%" y2="100%" gradientTransform="rotate(30)">
	<stop offset="0%" stop-color="#a855f7" />
	<stop offset="100%" stop-color="#1d4ed8" />
</linearGradient>
	</defs>
<g fill="url(#gradient)">
	<path d="M256,421.9C82.6,421.9,4.1,269.6,1.1,262c-1.5-4.5-1.5-9.1,0-13.6c3-6,81.4-158.4,254.9-158.4S507.9,242.4,510.9,250
		c1.5,4.5,1.5,9.1,0,13.6C507.9,269.6,429.4,421.9,256,421.9z M31.3,256c16.6,28.7,89,135.7,224.7,135.7S462.6,284.7,480.7,256
		c-16.6-28.7-89-135.7-224.7-135.7S49.4,227.3,31.3,256z"/>
	<path d="M256,391.7c-75.4,0-135.7-60.3-135.7-135.7S180.6,120.3,256,120.3S391.7,180.6,391.7,256S331.4,391.7,256,391.7z
		 M256,150.4c-58.8,0-105.6,46.8-105.6,105.6S197.2,361.6,256,361.6S361.6,314.8,361.6,256S314.8,150.4,256,150.4z"/>
	<path d="M256,331.4c-42.2,0-75.4-33.2-75.4-75.4c0-9.1,6-15.1,15.1-15.1c9.1,0,15.1,6,15.1,15.1c0,25.6,19.6,45.2,45.2,45.2
		s45.2-19.6,45.2-45.2s-19.6-45.2-45.2-45.2c-9.1,0-15.1-6-15.1-15.1c0-9.1,6-15.1,15.1-15.1c42.2,0,75.4,33.2,75.4,75.4
		S298.2,331.4,256,331.4z"/>
</g>
</svg>
